<svg width="270" height="129" viewBox="0 0 270 129" fill="none" xmlns="http://www.w3.org/2000/svg">
<path d="M122.16 77.9167H81.68V116.75H41.2V77.9167H0.719971V39.0833H41.2V0.25H81.68V39.0833H122.16" fill="#8D8FC6"/>
<path d="M140.16 77.9167H99.68V116.75H59.2V77.9167H18.72V39.0833H59.2V0.25H99.68V39.0833H140.16" fill="#EB5454"/>
<path d="M183 107L171.84 79H179.84L184.68 92.04C185 92.8667 185.267 93.5867 185.48 94.2C185.693 94.7867 185.88 95.3467 186.04 95.88C186.2 96.3867 186.36 96.9333 186.52 97.52C186.68 98.08 186.84 98.76 187 99.56H185.68C185.92 98.52 186.147 97.64 186.36 96.92C186.573 96.2 186.8 95.48 187.04 94.76C187.307 94.04 187.64 93.1333 188.04 92.04L192.8 79H200.6L189.36 107H183ZM203.478 107V85.68H210.918V107H203.478ZM207.198 81.64C205.838 81.64 204.784 81.3333 204.038 80.72C203.291 80.08 202.918 79.1867 202.918 78.04C202.918 76.9733 203.291 76.1067 204.038 75.44C204.811 74.7467 205.864 74.4 207.198 74.4C208.531 74.4 209.571 74.72 210.318 75.36C211.091 75.9733 211.478 76.8667 211.478 78.04C211.478 79.1067 211.091 79.9733 210.318 80.64C209.544 81.3067 208.504 81.64 207.198 81.64ZM223.153 107L214.273 85.68H222.553L227.313 101.6L225.393 101.64L230.193 85.68H238.433L229.113 107H223.153ZM248.692 107.36C246.932 107.36 245.345 106.893 243.932 105.96C242.545 105 241.439 103.693 240.612 102.04C239.812 100.36 239.412 98.4533 239.412 96.32C239.412 94.1333 239.812 92.2133 240.612 90.56C241.412 88.9067 242.519 87.6133 243.932 86.68C245.345 85.72 246.972 85.24 248.812 85.24C249.799 85.24 250.705 85.3733 251.532 85.64C252.359 85.9067 253.079 86.2933 253.692 86.8C254.305 87.3067 254.839 87.88 255.292 88.52C255.745 89.16 256.119 89.8533 256.412 90.6L254.892 90.52V85.68H262.212V107H254.732V101.8L256.372 101.88C256.132 102.653 255.772 103.373 255.292 104.04C254.839 104.707 254.279 105.293 253.612 105.8C252.945 106.28 252.199 106.667 251.372 106.96C250.572 107.227 249.679 107.36 248.692 107.36ZM250.812 101.24C251.665 101.24 252.399 101.053 253.012 100.68C253.625 100.28 254.092 99.7067 254.412 98.96C254.759 98.2133 254.932 97.3333 254.932 96.32C254.932 95.28 254.759 94.3867 254.412 93.64C254.092 92.8933 253.625 92.3333 253.012 91.96C252.399 91.56 251.665 91.36 250.812 91.36C249.959 91.36 249.225 91.56 248.612 91.96C248.025 92.3333 247.572 92.8933 247.252 93.64C246.932 94.3867 246.772 95.28 246.772 96.32C246.772 97.3333 246.932 98.2133 247.252 98.96C247.572 99.7067 248.025 100.28 248.612 100.68C249.225 101.053 249.959 101.24 250.812 101.24Z" fill="black"/>
</svg>
